<?xml version="1.0" encoding="UTF-8" standalone="no"?>
<svg
   xmlns:dc="http://purl.org/dc/elements/1.1/"
   xmlns:cc="http://creativecommons.org/ns#"
   xmlns:rdf="http://www.w3.org/1999/02/22-rdf-syntax-ns#"
   xmlns:svg="http://www.w3.org/2000/svg"
   xmlns="http://www.w3.org/2000/svg"
   xmlns:sodipodi="http://sodipodi.sourceforge.net/DTD/sodipodi-0.dtd"
   xmlns:inkscape="http://www.inkscape.org/namespaces/inkscape"
   id="Untitled-Str%E1nka%201"
   viewBox="0 0 59.928501 60"
   version="1.1"
   xml:space="preserve"
   x="0px"
   y="0px"
   width="59.928501"
   height="60"
   sodipodi:docname="logo.svg"
   inkscape:version="1.0.1 (3bc2e813f5, 2020-09-07)"><metadata
   id="metadata64"><rdf:RDF><cc:Work
       rdf:about=""><dc:format>image/svg+xml</dc:format><dc:type
         rdf:resource="http://purl.org/dc/dcmitype/StillImage" /><dc:title></dc:title></cc:Work></rdf:RDF></metadata><defs
   id="defs62" /><sodipodi:namedview
   pagecolor="#ffffff"
   bordercolor="#666666"
   borderopacity="1"
   objecttolerance="10"
   gridtolerance="10"
   guidetolerance="10"
   inkscape:pageopacity="0"
   inkscape:pageshadow="2"
   inkscape:window-width="2300"
   inkscape:window-height="902"
   id="namedview60"
   showgrid="false"
   fit-margin-top="0"
   fit-margin-left="0"
   fit-margin-right="0"
   fit-margin-bottom="0"
   inkscape:zoom="7.0884956"
   inkscape:cx="113"
   inkscape:cy="30"
   inkscape:window-x="565"
   inkscape:window-y="956"
   inkscape:window-maximized="0"
   inkscape:current-layer="Untitled-Str%E1nka%201" />
	<g
   id="g18">
				<path
   d="m 59.9285,30 c 0,16.5696 -13.4141,30 -29.9641,30 C 13.4159,60 0,46.5696 0,30 0,13.4315 13.4159,0 29.9644,0 c 16.55,0 29.9641,13.4315 29.9641,30 z"
   fill="#2f65b0"
   id="path2" />
				<g
   id="g16">
					<path
   d="m 21.6322,28.8001 c -0.3342,1.2214 -1.4434,2.0677 -2.7082,2.0677 h -1.8674 c 0.0212,0.043 0.0427,0.0827 0.0652,0.1268 8e-4,0 8e-4,0 0.0027,0.0011 0.0043,0.0075 0.0097,0.0182 0.015,0.0258 0.0564,0.0946 0.1179,0.1892 0.1842,0.2805 0.0169,0.0237 0.033,0.0452 0.0507,0.0678 0.0341,0.0451 0.0671,0.0859 0.1028,0.1257 0.0204,0.0269 0.0438,0.0495 0.0652,0.071 0.0553,0.0645 0.1152,0.1236 0.1769,0.1806 0.0293,0.0301 0.0588,0.0559 0.0902,0.0827 0.0338,0.028 0.0687,0.0592 0.1036,0.0893 0.0491,0.0376 0.0983,0.0752 0.1482,0.1107 0.0392,0.0269 0.0794,0.0516 0.1197,0.0784 0.0491,0.0323 0.0972,0.0613 0.1482,0.0893 0.0303,0.0161 0.0606,0.0365 0.092,0.0526 0.0741,0.0377 0.1501,0.0753 0.2269,0.1086 0.018,0.0075 0.0357,0.0129 0.0553,0.0194 0.0679,0.029 0.1377,0.0537 0.2091,0.0795 0.0268,0.0086 0.0526,0.0161 0.0813,0.0247 0.0856,0.0247 0.1739,0.0506 0.2644,0.0699 0.0078,0 0.0142,0.0022 0.0223,0.0032 0.0864,0.0161 0.1731,0.0301 0.2625,0.0398 0.025,0.0032 0.0491,0.0054 0.0741,0.0054 0.0955,0.0107 0.1938,0.0161 0.292,0.0161 0.1831,0 0.3627,-0.0183 0.5377,-0.0484 0.0368,-0.0043 0.0733,-0.0086 0.109,-0.0161 1.4629,-0.301 2.5624,-1.5963 2.5624,-3.1469 0,-0.032 -0.0035,-0.0608 -0.0043,-0.0919 C 23.112,29.2319 23.1104,29.1524 23.1023,29.0737 23.0978,29.0368 23.0905,29.0038 23.0852,28.9699 23.0755,28.8966 23.0664,28.8213 23.0513,28.7498 23.046,28.7222 23.0371,28.6964 23.0317,28.6695 23.0121,28.5907 22.9933,28.512 22.97,28.4351 22.9638,28.4182 22.9566,28.4029 22.9512,28.3833 22.9228,28.3002 22.8932,28.2169 22.8575,28.1355 22.854,28.1258 22.8476,28.117 22.8441,28.1062 22.8057,28.0194 22.7646,27.9334 22.7171,27.8496 22.7155,27.8458 22.7128,27.8431 22.711,27.8388 22.661,27.7512 22.6084,27.6663 22.5502,27.5803 v 0 C 22.4914,27.4935 22.427,27.4104 22.3599,27.3325 v 0 c -0.0669,-0.0812 -0.1383,-0.1564 -0.2116,-0.2287 -8e-4,-0.0011 -0.0018,-0.0019 -0.0018,-0.0019 v 0 c -0.0124,-0.0123 -0.0269,-0.0231 -0.04,-0.0349 l -0.0752,0.2746 z"
   fill="none"
   id="path4" />
					<path
   d="m 14.5272,26.4153 c 0.2035,-1.5399 -0.8791,-2.9518 -2.4161,-3.1558 -0.1758,-0.0231 -0.3527,-0.0295 -0.5296,-0.0196 1.2487,-1.6917 2.9822,-2.9634 4.9712,-3.6454 l 4.7802,3.6758 0.1081,0.0814 4.5023,-15.9945 c 0.1106,-0.3915 0.418,-0.6973 0.8083,-0.8091 0.6225,-0.1753 1.2702,0.1878 1.4452,0.8091 l 9.8005,34.8094 c 0.3135,1.1136 1.2753,1.693 2.1471,1.2931 0.4725,-0.2171 0.8431,-0.6912 1.012,-1.2931 l 3.0947,-10.9882 c 0.3403,-1.2088 1.446,-2.0475 2.7027,-2.0475 h 9.4924 C 55.988,14.8792 44.3117,3.4632 29.9644,3.4632 15.6176,3.4632 3.9405,14.8792 3.4815,29.1309 h 10.6874 v 0 l 0.008,-0.0538 z"
   fill="none"
   id="path6" />
					<path
   d="m 17.6879,29.1309 c 1.2568,0 2.3616,-0.8352 2.7028,-2.0486 l 0.1455,-0.516 0.0813,-0.2923 c -0.0411,-0.01 -0.0805,-0.0207 -0.1224,-0.0277 v -0.0011 c -0.0035,0 -0.0054,0 -0.0088,-8e-4 -0.0913,-0.0161 -0.1831,-0.0304 -0.2779,-0.0392 -0.099,-0.01 -0.1973,-0.0143 -0.2993,-0.0143 -0.1071,0 -0.2134,0.0043 -0.3178,0.0159 -0.0357,0.0027 -0.0698,0.0099 -0.1036,0.0134 -0.0698,0.0108 -0.1385,0.0188 -0.2072,0.0331 -0.0403,0.008 -0.0787,0.0188 -0.1189,0.0287 -0.0599,0.0142 -0.1206,0.0285 -0.1796,0.0454 -0.0419,0.0135 -0.0821,0.0288 -0.1232,0.043 -0.0553,0.0188 -0.1098,0.0377 -0.1643,0.06 -0.0411,0.0169 -0.0802,0.0357 -0.1216,0.0556 -0.0507,0.0223 -0.1017,0.0462 -0.1517,0.0715 -0.0402,0.0223 -0.0786,0.0446 -0.1189,0.0661 -0.0464,0.0277 -0.0944,0.0572 -0.1401,0.0876 -0.0384,0.0242 -0.0759,0.05 -0.1124,0.0768 -0.0449,0.0323 -0.0876,0.0645 -0.1313,0.0957 -0.036,0.0304 -0.0698,0.0599 -0.1047,0.0903 -0.0419,0.0349 -0.0813,0.0715 -0.1205,0.1083 -0.033,0.0331 -0.0652,0.0642 -0.0975,0.0976 -0.0365,0.0392 -0.073,0.0795 -0.1079,0.1196 -0.0303,0.0341 -0.0598,0.069 -0.0893,0.1056 -0.0331,0.0419 -0.0653,0.086 -0.0964,0.1295 -0.0269,0.0376 -0.0537,0.0744 -0.0795,0.1137 -0.0287,0.0446 -0.0571,0.0921 -0.0851,0.1395 -0.023,0.0403 -0.0464,0.0787 -0.0668,0.1198 -0.026,0.0484 -0.0499,0.0992 -0.0733,0.151 -0.018,0.0404 -0.0384,0.0796 -0.0563,0.1218 -0.0231,0.0545 -0.04,0.1107 -0.0607,0.1652 -0.0134,0.0422 -0.0295,0.0807 -0.0419,0.1226 -0.0188,0.0618 -0.0322,0.1244 -0.0491,0.1886 -0.0073,0.0358 -0.0188,0.0726 -0.026,0.111 -0.0188,0.0903 -0.0323,0.1814 -0.0419,0.2755 -0.0019,0.0116 -0.0046,0.0223 -0.0054,0.033 0,0 0,0 0,8e-4 -8e-4,0.017 -8e-4,0.0358 -0.0027,0.0538 h 0.3984 z"
   fill="none"
   id="path8" />
					<path
   d="m 45.514,32.9381 -4.8097,17.569 c -0.1078,0.3988 -0.4187,0.7116 -0.817,0.8191 -0.6236,0.172 -1.2667,-0.1945 -1.438,-0.8191 L 28.8987,15.6169 C 28.546,14.3267 27.4412,13.647 26.43,14.0977 c -0.5564,0.2478 -0.9948,0.8068 -1.1905,1.5192 l -2.408,8.8033 0.0394,0.0322 2.3141,1.7786 c 1.2308,0.9451 2.993,0.7145 3.9378,-0.5176 0.1074,-0.1406 0.203,-0.2916 0.2824,-0.4499 0.8394,1.9279 1.0708,4.0695 0.6671,6.1353 l -10.0569,4.1643 c -1.4318,0.5956 -2.1149,2.2381 -1.5209,3.6742 0.068,0.1645 0.1509,0.3214 0.2483,0.4687 -2.0883,-0.2365 -4.0559,-1.104 -5.6393,-2.4885 l 0.8197,-6.2218 0.017,-0.1279 v 0 H 3.4815 c 0.459,14.2527 12.1361,25.6676 26.4829,25.6676 14.3473,0 26.0236,-11.4149 26.4818,-25.6676 h -8.2251 c -1.263,0 -2.3729,0.8513 -2.7071,2.0703 z"
   fill="none"
   id="path10" />
					<path
   d="M 29.9644,1.7277 C 14.393,1.7277 1.7254,14.41 1.7254,30 c 0,15.5914 12.6676,28.2726 28.239,28.2726 C 45.5363,58.2726 58.203,45.5914 58.203,30 58.203,14.41 45.5363,1.7277 29.9644,1.7277 Z m 0,54.8077 C 15.6176,56.5354 3.9405,45.1205 3.4815,30.8678 h 10.4587 l 0.2287,-1.7369 H 3.4815 C 3.9405,14.8792 15.6176,3.4632 29.9644,3.4632 c 14.3473,0 26.0236,11.416 26.4818,25.6677 h -9.4924 c -1.2567,0 -2.3624,0.8387 -2.7027,2.0475 l -3.0947,10.9882 c -0.1689,0.6019 -0.5395,1.076 -1.012,1.2931 -0.8718,0.3999 -1.8336,-0.1795 -2.1471,-1.2931 L 28.1968,7.3572 C 28.0218,6.7359 27.3741,6.3728 26.7516,6.5481 26.3613,6.6599 26.0539,6.9657 25.9433,7.3572 l -4.5023,15.9945 -0.1465,0.5179 -0.677,2.4044 -0.0813,0.2923 -0.1455,0.516 c -0.3412,1.2134 -1.446,2.0486 -2.7028,2.0486 h -0.576 -0.3984 c -0.008,0.0903 -0.0142,0.1806 -0.0142,0.2744 0,0.0967 0.0062,0.1951 0.0161,0.2889 8e-4,0.025 0.0035,0.05 0.007,0.0725 0.0107,0.093 0.0223,0.1833 0.0411,0.2717 0.0045,0.0234 0.0099,0.0438 0.0153,0.0672 0.0142,0.0634 0.0311,0.1277 0.0491,0.1903 0.0107,0.0376 0.0231,0.0787 0.0365,0.1172 0.0153,0.0475 0.0341,0.0983 0.0518,0.144 0.0276,0.0696 0.0564,0.1357 0.0875,0.2053 0.0134,0.0269 0.0268,0.0559 0.0411,0.0849 0.0037,0.0065 0.008,0.014 0.0118,0.0205 h 1.8674 c 1.2648,0 2.374,-0.8463 2.7082,-2.0677 l 0.3991,-1.4585 0.0752,-0.2746 0.5822,-2.1255 0.1428,-0.5213 2.408,-8.8033 c 0.1957,-0.7124 0.6341,-1.2714 1.1905,-1.5192 1.0112,-0.4507 2.116,0.229 2.4687,1.5192 l 9.5506,34.8902 c 0.1713,0.6246 0.8144,0.9911 1.438,0.8191 0.3983,-0.1075 0.7092,-0.4203 0.817,-0.8191 l 4.8097,-17.569 c 0.3342,-1.219 1.4441,-2.0703 2.7071,-2.0703 h 8.2251 C 55.988,45.1205 44.3117,56.5354 29.9644,56.5354 Z"
   fill="#ffffff"
   id="path12" />
					<path
   d="m 29.4052,25.2635 c -0.0794,0.1583 -0.175,0.3093 -0.2824,0.4499 -0.9448,1.2321 -2.707,1.4627 -3.9378,0.5176 l -2.3141,-1.7786 -0.0394,-0.0322 -0.1428,0.5213 -0.5822,2.1255 c 0.0131,0.0118 0.0276,0.0226 0.04,0.0349 v 0 c 0,0 0.001,8e-4 0.0018,0.0019 0.0733,0.0723 0.1447,0.1475 0.2116,0.2287 v 0 c 0.0671,0.0779 0.1315,0.161 0.1903,0.2478 v 0 c 0.0582,0.086 0.1108,0.1709 0.1608,0.2585 0.0018,0.0043 0.0045,0.007 0.0061,0.0108 0.0475,0.0838 0.0886,0.1698 0.127,0.2566 0.0035,0.0108 0.0099,0.0196 0.0134,0.0293 0.0357,0.0814 0.0653,0.1647 0.0937,0.2478 0.0054,0.0196 0.0126,0.0349 0.0188,0.0518 0.0233,0.0769 0.0421,0.1556 0.0617,0.2344 0.0054,0.0269 0.0143,0.0527 0.0196,0.0803 0.0151,0.0715 0.0242,0.1468 0.0339,0.2201 0.0053,0.0339 0.0126,0.0669 0.0171,0.1038 0.0081,0.0787 0.0097,0.1582 0.0116,0.2397 8e-4,0.0311 0.0043,0.0599 0.0043,0.0919 0,1.5506 -1.0995,2.8459 -2.5624,3.1469 -0.0357,0.0075 -0.0722,0.0118 -0.109,0.0161 -0.175,0.0301 -0.3546,0.0484 -0.5377,0.0484 -0.0982,0 -0.1965,-0.0054 -0.292,-0.0161 -0.025,0 -0.0491,-0.0022 -0.0741,-0.0054 -0.0894,-0.0097 -0.1761,-0.0237 -0.2625,-0.0398 -0.0081,-10e-4 -0.0145,-0.0032 -0.0223,-0.0032 -0.0905,-0.0193 -0.1788,-0.0452 -0.2644,-0.0699 -0.0287,-0.0086 -0.0545,-0.0161 -0.0813,-0.0247 -0.0714,-0.0258 -0.1412,-0.0505 -0.2091,-0.0795 -0.0196,-0.0065 -0.0373,-0.0119 -0.0553,-0.0194 -0.0768,-0.0333 -0.1528,-0.0709 -0.2269,-0.1086 -0.0314,-0.0161 -0.0617,-0.0365 -0.092,-0.0526 -0.051,-0.028 -0.0991,-0.057 -0.1482,-0.0893 -0.0403,-0.0268 -0.0805,-0.0515 -0.1197,-0.0784 -0.0499,-0.0355 -0.0991,-0.0731 -0.1482,-0.1107 -0.0349,-0.0301 -0.0698,-0.0613 -0.1036,-0.0893 -0.0314,-0.0268 -0.0609,-0.0526 -0.0902,-0.0827 -0.0617,-0.057 -0.1216,-0.1161 -0.1769,-0.1806 -0.0214,-0.0215 -0.0448,-0.0441 -0.0652,-0.071 -0.0357,-0.0398 -0.0687,-0.0806 -0.1028,-0.1257 -0.0177,-0.0226 -0.0338,-0.0441 -0.0507,-0.0678 -0.0663,-0.0913 -0.1278,-0.1859 -0.1842,-0.2805 -0.0053,-0.0076 -0.0107,-0.0183 -0.015,-0.0258 -0.0019,-0.0011 -0.0019,-0.0011 -0.0027,-0.0011 -0.0225,-0.0441 -0.044,-0.0838 -0.0652,-0.1268 -0.0038,-0.0065 -0.0081,-0.014 -0.0118,-0.0205 -0.0143,-0.029 -0.0277,-0.058 -0.0411,-0.0849 -0.0311,-0.0696 -0.0599,-0.1357 -0.0875,-0.2053 -0.0177,-0.0457 -0.0365,-0.0965 -0.0518,-0.144 C 16.851,30.3746 16.8386,30.3335 16.8279,30.2959 16.8099,30.2333 16.793,30.169 16.7788,30.1056 16.7734,30.0822 16.768,30.0618 16.7635,30.0384 16.7447,29.95 16.7331,29.8597 16.7224,29.7667 c -0.0035,-0.0225 -0.0062,-0.0475 -0.007,-0.0725 -0.0099,-0.0938 -0.0161,-0.1922 -0.0161,-0.2889 0,-0.0938 0.0062,-0.1841 0.0142,-0.2744 0.0019,-0.018 0.0019,-0.0368 0.0027,-0.0538 0,-8e-4 0,-8e-4 0,-8e-4 8e-4,-0.0107 0.0035,-0.0214 0.0054,-0.033 0.0096,-0.0941 0.0231,-0.1852 0.0419,-0.2755 0.0072,-0.0384 0.0187,-0.0752 0.026,-0.111 0.0169,-0.0642 0.0303,-0.1268 0.0491,-0.1886 0.0124,-0.0419 0.0285,-0.0804 0.0419,-0.1226 0.0207,-0.0545 0.0376,-0.1107 0.0607,-0.1652 0.0179,-0.0422 0.0383,-0.0814 0.0563,-0.1218 0.0234,-0.0518 0.0473,-0.1026 0.0733,-0.151 0.0204,-0.0411 0.0438,-0.0795 0.0668,-0.1198 0.028,-0.0474 0.0564,-0.0949 0.0851,-0.1395 0.0258,-0.0393 0.0526,-0.0761 0.0795,-0.1137 0.0311,-0.0435 0.0633,-0.0876 0.0964,-0.1295 0.0295,-0.0366 0.059,-0.0715 0.0893,-0.1056 0.0349,-0.0401 0.0714,-0.0804 0.1079,-0.1196 0.0323,-0.0334 0.0645,-0.0645 0.0975,-0.0976 0.0392,-0.0368 0.0786,-0.0734 0.1205,-0.1083 0.0349,-0.0304 0.0687,-0.0599 0.1047,-0.0903 0.0437,-0.0312 0.0864,-0.0634 0.1313,-0.0957 0.0365,-0.0268 0.074,-0.0526 0.1124,-0.0768 0.0457,-0.0304 0.0937,-0.0599 0.1401,-0.0876 0.0403,-0.0215 0.0787,-0.0438 0.1189,-0.0661 0.05,-0.0253 0.101,-0.0492 0.1517,-0.0715 0.0414,-0.0199 0.0805,-0.0387 0.1216,-0.0556 0.0545,-0.0223 0.109,-0.0412 0.1643,-0.06 0.0411,-0.0142 0.0813,-0.0295 0.1232,-0.043 0.059,-0.0169 0.1197,-0.0312 0.1796,-0.0454 0.0402,-0.0099 0.0786,-0.0207 0.1189,-0.0287 0.0687,-0.0143 0.1374,-0.0223 0.2072,-0.0331 0.0338,-0.0035 0.0679,-0.0107 0.1036,-0.0134 0.1044,-0.0116 0.2107,-0.0159 0.3178,-0.0159 0.102,0 0.2003,0.0043 0.2993,0.0143 0.0948,0.0088 0.1866,0.0231 0.2779,0.0392 0.0034,8e-4 0.0053,8e-4 0.0088,8e-4 v 0.0011 c 0.0419,0.007 0.0813,0.0177 0.1224,0.0277 l 0.677,-2.4044 0.1465,-0.5179 -0.1081,-0.0814 -4.7802,-3.6758 c -1.989,0.682 -3.7225,1.9537 -4.9712,3.6454 0.1769,-0.0099 0.3538,-0.0035 0.5296,0.0196 1.537,0.204 2.6196,1.6159 2.4161,3.1558 l -0.3503,2.6618 -0.008,0.0538 -0.2287,1.7369 -0.017,0.1279 -0.8197,6.2218 c 1.5834,1.3845 3.551,2.252 5.6393,2.4885 -0.0974,-0.1473 -0.1803,-0.3042 -0.2483,-0.4687 -0.594,-1.4361 0.0891,-3.0786 1.5209,-3.6742 l 10.0569,-4.1643 c 0.4037,-2.0658 0.1723,-4.2074 -0.6671,-6.1353 z"
   fill="#b3b3b3"
   id="path14" />
				</g>
			</g>
</svg>
