<?xml version="1.0" encoding="UTF-8" standalone="no"?>
<!-- Created with Inkscape (http://www.inkscape.org/) -->

<svg
   xmlns:dc="http://purl.org/dc/elements/1.1/"
   xmlns:cc="http://creativecommons.org/ns#"
   xmlns:rdf="http://www.w3.org/1999/02/22-rdf-syntax-ns#"
   xmlns:svg="http://www.w3.org/2000/svg"
   xmlns="http://www.w3.org/2000/svg"
   xmlns:sodipodi="http://sodipodi.sourceforge.net/DTD/sodipodi-0.dtd"
   xmlns:inkscape="http://www.inkscape.org/namespaces/inkscape"
   width="15.856082mm"
   height="15.875mm"
   viewBox="-0.2 0 15.856082 15.875"
   version="1.1"
   id="svg8"
   inkscape:version="0.92.3 (2405546, 2018-03-11)"
   sodipodi:docname="pslib_logo_small.svg">
  <defs
     id="defs2" />
  <sodipodi:namedview
     id="base"
     pagecolor="#ffffff"
     bordercolor="#666666"
     borderopacity="1.0"
     inkscape:pageopacity="0.0"
     inkscape:pageshadow="2"
     inkscape:zoom="22.4"
     inkscape:cx="43.191805"
     inkscape:cy="26.474612"
     inkscape:document-units="mm"
     inkscape:current-layer="layer1"
     showgrid="false"
     viewbox-x="-0.2"
     fit-margin-top="0"
     fit-margin-left="0"
     fit-margin-right="0"
     fit-margin-bottom="0"
     inkscape:pagecheckerboard="true"
     inkscape:window-width="3840"
     inkscape:window-height="2066"
     inkscape:window-x="2869"
     inkscape:window-y="-11"
     inkscape:window-maximized="1" />
  <metadata
     id="metadata5">
    <rdf:RDF>
      <cc:Work
         rdf:about="">
        <dc:format>image/svg+xml</dc:format>
        <dc:type
           rdf:resource="http://purl.org/dc/dcmitype/StillImage" />
        <dc:title></dc:title>
      </cc:Work>
    </rdf:RDF>
  </metadata>
  <g
     inkscape:label="Vrstva 1"
     inkscape:groupmode="layer"
     id="layer1"
     transform="translate(-45.897322,-89.491072)">
    <path
       id="path3715"
       d="m 51.420842,97.111098 c -0.08842,0.323162 -0.3819,0.547079 -0.716545,0.547079 h -0.494083 c 0.0056,0.01138 0.0113,0.02188 0.01725,0.03355 2.12e-4,0 2.12e-4,0 7.14e-4,2.92e-4 0.0011,0.002 0.0026,0.0048 0.004,0.0068 0.01492,0.02503 0.03119,0.05006 0.04874,0.07422 0.0045,0.0063 0.0087,0.01196 0.01342,0.01794 0.009,0.01193 0.01775,0.02273 0.0272,0.03326 0.0054,0.0071 0.01159,0.0131 0.01725,0.01879 0.01463,0.01707 0.03048,0.0327 0.0468,0.04778 0.0078,0.008 0.01556,0.01479 0.02387,0.02188 0.0089,0.0074 0.01818,0.01566 0.02741,0.02363 0.01299,0.0099 0.02601,0.0199 0.03921,0.02929 0.01037,0.0071 0.02101,0.01365 0.03167,0.02074 0.01299,0.0085 0.02572,0.01622 0.03921,0.02363 0.008,0.0043 0.01603,0.0097 0.02434,0.01392 0.01961,0.01 0.03971,0.01992 0.06003,0.02873 0.0048,0.002 0.0094,0.0034 0.01463,0.0051 0.01796,0.0077 0.03643,0.01421 0.05532,0.02103 0.0071,0.0023 0.01392,0.0043 0.02151,0.0065 0.02265,0.0065 0.04601,0.01339 0.06996,0.01849 0.0021,0 0.0038,5.83e-4 0.0059,8.47e-4 0.02286,0.0043 0.0458,0.008 0.06945,0.01053 0.0066,8.46e-4 0.01299,0.0014 0.01961,0.0014 0.02527,0.0028 0.05128,0.0043 0.07726,0.0043 0.04845,0 0.09596,-0.0048 0.142266,-0.01281 0.0097,-0.0011 0.01939,-0.0023 0.02884,-0.0043 0.387059,-0.07964 0.677968,-0.422354 0.677968,-0.832617 0,-0.0085 -9.26e-4,-0.01609 -0.0011,-0.02432 -5.03e-4,-0.02156 -9.26e-4,-0.0426 -0.0031,-0.06342 -0.0012,-0.0098 -0.0031,-0.01849 -0.0045,-0.02746 -0.0026,-0.01939 -0.005,-0.03932 -0.009,-0.05823 -0.0014,-0.0073 -0.0038,-0.01413 -0.0052,-0.02125 -0.0052,-0.02085 -0.01016,-0.04167 -0.01633,-0.06202 -0.0016,-0.0045 -0.0035,-0.0085 -0.005,-0.01371 -0.0075,-0.02199 -0.01535,-0.04403 -0.02479,-0.06556 -9.26e-4,-0.0026 -0.0026,-0.0049 -0.0035,-0.0078 -0.01016,-0.02297 -0.02103,-0.04572 -0.0336,-0.06789 -4.23e-4,-10e-4 -0.0011,-0.0017 -0.0016,-0.0029 -0.01323,-0.02318 -0.02715,-0.04564 -0.04255,-0.06839 v 0 c -0.01556,-0.02297 -0.0326,-0.04495 -0.05035,-0.06556 v 0 c -0.0177,-0.02148 -0.03659,-0.04138 -0.05599,-0.06051 -2.12e-4,-2.91e-4 -4.76e-4,-5.03e-4 -4.76e-4,-5.03e-4 v 0 c -0.0033,-0.0033 -0.0071,-0.0061 -0.01058,-0.0092 l -0.0199,0.07266 z"
       inkscape:connector-curvature="0"
       style="fill:none;stroke-width:0.26458332" />
    <path
       id="path3717"
       d="m 49.540977,96.48012 c 0.05384,-0.407432 -0.232595,-0.780997 -0.63926,-0.834972 -0.04651,-0.0061 -0.09332,-0.0078 -0.140123,-0.0052 0.330385,-0.447595 0.78904,-0.784066 1.315296,-0.964512 l 1.264762,0.972555 0.0286,0.02154 1.191234,-4.231879 c 0.02926,-0.103584 0.110596,-0.184493 0.213862,-0.214074 0.164704,-0.04638 0.336074,0.04969 0.382376,0.214074 l 2.593049,9.209988 c 0.08295,0.29464 0.337423,0.44794 0.568087,0.34213 0.125016,-0.0574 0.22307,-0.18288 0.267758,-0.34213 l 0.818806,-2.907295 c 0.09004,-0.319828 0.382588,-0.541734 0.71509,-0.541734 h 2.511531 c -0.121233,-3.770763 -3.210587,-6.791246 -7.006643,-6.791246 -3.795924,0 -6.88549,3.020483 -7.006934,6.791246 h 2.827708 v 0 l 0.0021,-0.01423 z"
       inkscape:connector-curvature="0"
       style="fill:none;stroke-width:0.26458332" />
    <path
       id="path3719"
       d="m 50.377245,97.198623 c 0.332529,0 0.62484,-0.22098 0.715116,-0.542026 l 0.0385,-0.136525 0.02151,-0.07734 c -0.01087,-0.0026 -0.0213,-0.0055 -0.03238,-0.0073 v -2.91e-4 c -9.26e-4,0 -0.0014,0 -0.0023,-2.11e-4 -0.02416,-0.0043 -0.04845,-0.008 -0.07353,-0.01037 -0.02619,-0.0026 -0.0522,-0.0038 -0.07919,-0.0038 -0.02834,0 -0.05646,0.0011 -0.08408,0.0042 -0.0094,7.15e-4 -0.01847,0.0026 -0.02741,0.0035 -0.01847,0.0029 -0.03665,0.005 -0.05482,0.0088 -0.01066,0.0021 -0.02082,0.005 -0.03146,0.0076 -0.01585,0.0038 -0.03191,0.0075 -0.04752,0.01201 -0.01109,0.0036 -0.02172,0.0076 -0.0326,0.01138 -0.01463,0.005 -0.02905,0.01 -0.04347,0.01588 -0.01087,0.0045 -0.02122,0.0094 -0.03217,0.01471 -0.01341,0.0059 -0.02691,0.01222 -0.04014,0.01892 -0.01064,0.0059 -0.0208,0.0118 -0.03146,0.01749 -0.01228,0.0073 -0.02498,0.01513 -0.03707,0.02318 -0.01016,0.0064 -0.02008,0.01323 -0.02974,0.02032 -0.01188,0.0085 -0.02318,0.01707 -0.03474,0.02532 -0.0095,0.008 -0.01847,0.01585 -0.0277,0.02389 -0.01109,0.0092 -0.02151,0.01892 -0.03188,0.02865 -0.0087,0.0088 -0.01725,0.01699 -0.0258,0.02582 -0.0097,0.01037 -0.01931,0.02104 -0.02855,0.03165 -0.008,0.009 -0.01582,0.01826 -0.02363,0.02794 -0.0088,0.01109 -0.01728,0.02275 -0.02551,0.03426 -0.0071,0.0099 -0.01421,0.01968 -0.02103,0.03008 -0.0076,0.0118 -0.01511,0.02437 -0.02252,0.03691 -0.0061,0.01066 -0.01228,0.02082 -0.01767,0.0317 -0.0069,0.01281 -0.0132,0.02625 -0.01939,0.03995 -0.0048,0.01069 -0.01016,0.02106 -0.0149,0.03223 -0.0061,0.01442 -0.01058,0.02929 -0.01606,0.04371 -0.0035,0.01117 -0.0078,0.02135 -0.01109,0.03244 -0.005,0.01635 -0.0085,0.03291 -0.01299,0.0499 -0.0019,0.0095 -0.005,0.01921 -0.0069,0.02937 -0.005,0.02389 -0.0085,0.048 -0.01109,0.07289 -5.03e-4,0.0031 -0.0012,0.0059 -0.0014,0.0087 0,0 0,0 0,2.12e-4 -2.12e-4,0.0045 -2.12e-4,0.0095 -7.15e-4,0.01423 h 0.10541 z"
       inkscape:connector-curvature="0"
       style="fill:none;stroke-width:0.26458332" />
    <path
       id="path3721"
       d="m 57.739568,98.205944 -1.272567,4.648466 c -0.02852,0.10551 -0.110781,0.18828 -0.216164,0.21672 -0.164995,0.0455 -0.335148,-0.0515 -0.380471,-0.21672 l -2.52693,-9.231367 c -0.09332,-0.341365 -0.38563,-0.521202 -0.653177,-0.401955 -0.147214,0.06556 -0.263207,0.213466 -0.314986,0.401955 l -0.637117,2.329207 0.01043,0.0085 0.612272,0.470588 c 0.325649,0.250058 0.791898,0.189045 1.041876,-0.136948 0.02842,-0.0372 0.05371,-0.07715 0.07472,-0.119036 0.222091,0.51009 0.283316,1.076722 0.176503,1.623298 l -2.660888,1.101804 c -0.37883,0.157586 -0.559567,0.592164 -0.402405,0.972132 0.01799,0.04352 0.03993,0.08504 0.0657,0.124011 -0.552529,-0.06257 -1.073123,-0.2921 -1.492064,-0.658416 l 0.216879,-1.646184 0.0045,-0.03384 v 0 h -2.767198 c 0.121444,3.771021 3.21101,6.791221 7.006934,6.791221 3.796056,0 6.88541,-3.0202 7.006643,-6.791221 h -2.176225 c -0.334169,0 -0.62783,0.22524 -0.716253,0.547767 z"
       inkscape:connector-curvature="0"
       style="fill:none;stroke-width:0.26458332" />
    <path
       id="path3723"
       d="m 53.625403,89.948193 c -4.119933,0 -7.471569,3.355525 -7.471569,7.480379 0,4.125228 3.351636,7.480458 7.471569,7.480458 4.120065,0 7.471463,-3.35523 7.471463,-7.480458 0,-4.124854 -3.351398,-7.480379 -7.471463,-7.480379 z m 0,14.501207 c -3.795924,0 -6.88549,-3.0202 -7.006934,-6.791223 h 2.767198 l 0.06051,-0.459554 h -2.827708 c 0.121444,-3.770763 3.21101,-6.791246 7.006934,-6.791246 3.796056,0 6.88541,3.020483 7.006643,6.791246 h -2.511531 c -0.332502,0 -0.625052,0.221906 -0.71509,0.541734 l -0.818806,2.907293 c -0.04469,0.15925 -0.142742,0.28469 -0.267758,0.34213 -0.230664,0.10581 -0.48514,-0.0475 -0.568087,-0.34213 l -2.593049,-9.209986 c -0.0463,-0.164385 -0.217672,-0.260455 -0.382376,-0.214074 -0.103266,0.02958 -0.184599,0.11049 -0.213862,0.214074 l -1.191234,4.231879 -0.03876,0.137027 -0.179123,0.636164 -0.02151,0.07734 -0.0385,0.136525 c -0.09028,0.321046 -0.382587,0.542026 -0.715116,0.542026 h -0.1524 -0.10541 c -0.0021,0.02389 -0.0038,0.04778 -0.0038,0.0726 0,0.02558 0.0016,0.05162 0.0043,0.07644 2.12e-4,0.0066 9.26e-4,0.01323 0.0019,0.01918 0.0028,0.02461 0.0059,0.0485 0.01088,0.07189 0.0012,0.0062 0.0026,0.01159 0.004,0.01778 0.0038,0.01677 0.0082,0.03379 0.01299,0.05035 0.0028,0.0099 0.0061,0.02082 0.0097,0.03101 0.004,0.01257 0.009,0.02601 0.01371,0.0381 0.0073,0.01842 0.01492,0.0359 0.02315,0.05432 0.0035,0.0071 0.0071,0.01479 0.01087,0.02246 9.79e-4,0.0017 0.0021,0.0037 0.0031,0.0054 h 0.494083 c 0.334645,0 0.628121,-0.223917 0.716545,-0.547079 l 0.105595,-0.385894 0.0199,-0.07266 0.154041,-0.562372 0.03778,-0.137927 0.637117,-2.329207 c 0.05178,-0.188489 0.167772,-0.336391 0.314986,-0.401955 0.267547,-0.119247 0.559859,0.06059 0.653177,0.401955 l 2.52693,9.231364 c 0.04532,0.16526 0.215476,0.26223 0.380471,0.21672 0.105383,-0.0284 0.187642,-0.11121 0.216164,-0.21672 l 1.272567,-4.648463 c 0.08842,-0.322527 0.382084,-0.547767 0.716253,-0.547767 h 2.176225 c -0.121233,3.77102 -3.210587,6.79122 -7.006643,6.79122 z"
       inkscape:connector-curvature="0"
       style="fill:#ffffff;stroke-width:0.26458332" />
    <path
       id="path3725"
       d="m 53.477448,96.175373 c -0.02101,0.04188 -0.0463,0.08184 -0.07472,0.119036 -0.249978,0.325993 -0.716227,0.387006 -1.041876,0.136948 l -0.612272,-0.470588 -0.01043,-0.0085 -0.03778,0.137927 -0.154041,0.562372 c 0.0035,0.0031 0.0073,0.006 0.01058,0.0092 v 0 c 0,0 2.64e-4,2.12e-4 4.76e-4,5.03e-4 0.01939,0.01913 0.03829,0.03903 0.05599,0.06051 v 0 c 0.01775,0.02061 0.03479,0.0426 0.05035,0.06556 v 0 c 0.0154,0.02275 0.02932,0.04522 0.04255,0.06839 4.76e-4,0.0011 0.0012,0.0019 0.0016,0.0029 0.01257,0.02217 0.02344,0.04493 0.0336,0.06789 9.26e-4,0.0029 0.0026,0.0052 0.0035,0.0078 0.0094,0.02154 0.01728,0.04358 0.02479,0.06556 0.0014,0.0052 0.0033,0.0092 0.005,0.01371 0.0062,0.02035 0.01114,0.04117 0.01633,0.06202 0.0014,0.0071 0.0038,0.01394 0.0052,0.02125 0.004,0.01892 0.0064,0.03884 0.009,0.05823 0.0014,0.009 0.0033,0.0177 0.0045,0.02746 0.0021,0.02082 0.0026,0.04186 0.0031,0.06342 2.11e-4,0.0082 0.0011,0.01585 0.0011,0.02432 0,0.410263 -0.290909,0.752978 -0.677968,0.832617 -0.0094,0.002 -0.0191,0.0031 -0.02884,0.0043 -0.0463,0.008 -0.09382,0.01281 -0.142266,0.01281 -0.02598,0 -0.05199,-0.0014 -0.07726,-0.0043 -0.0066,0 -0.01299,-5.82e-4 -0.01961,-0.0014 -0.02365,-0.0026 -0.04659,-0.0063 -0.06945,-0.01053 -0.0021,-2.64e-4 -0.0038,-8.47e-4 -0.0059,-8.47e-4 -0.02394,-0.0051 -0.04731,-0.01196 -0.06996,-0.01849 -0.0076,-0.0023 -0.01442,-0.0043 -0.02151,-0.0065 -0.01889,-0.0068 -0.03736,-0.01336 -0.05532,-0.02103 -0.0052,-0.0017 -0.0099,-0.0031 -0.01463,-0.0051 -0.02032,-0.0088 -0.04043,-0.01876 -0.06003,-0.02873 -0.0083,-0.0043 -0.01632,-0.0097 -0.02434,-0.01392 -0.01349,-0.0074 -0.02622,-0.01508 -0.03921,-0.02363 -0.01066,-0.0071 -0.0213,-0.01363 -0.03167,-0.02074 -0.0132,-0.0094 -0.02622,-0.01934 -0.03921,-0.02929 -0.0092,-0.008 -0.01847,-0.01622 -0.02741,-0.02363 -0.0083,-0.0071 -0.01611,-0.01392 -0.02387,-0.02188 -0.01632,-0.01508 -0.03217,-0.03072 -0.0468,-0.04778 -0.0057,-0.0057 -0.01185,-0.01167 -0.01725,-0.01879 -0.0094,-0.01053 -0.01818,-0.02133 -0.0272,-0.03326 -0.0047,-0.006 -0.0089,-0.01167 -0.01342,-0.01794 -0.01754,-0.02416 -0.03381,-0.04919 -0.04874,-0.07422 -0.0014,-0.002 -0.0028,-0.0048 -0.004,-0.0068 -5.02e-4,-2.92e-4 -5.02e-4,-2.92e-4 -7.14e-4,-2.92e-4 -0.006,-0.01167 -0.01164,-0.02217 -0.01725,-0.03355 -10e-4,-0.0017 -0.0021,-0.0037 -0.0031,-0.0054 -0.0038,-0.0077 -0.0073,-0.01535 -0.01087,-0.02246 -0.0082,-0.01842 -0.01585,-0.0359 -0.02315,-0.05432 -0.0047,-0.01209 -0.0097,-0.02553 -0.01371,-0.0381 -0.0035,-0.01019 -0.0068,-0.02106 -0.0097,-0.03101 -0.0048,-0.01656 -0.0092,-0.03358 -0.01299,-0.05035 -0.0014,-0.0062 -0.0029,-0.01159 -0.004,-0.01778 -0.005,-0.02339 -0.008,-0.04728 -0.01088,-0.07189 -9.26e-4,-0.006 -0.0016,-0.01257 -0.0019,-0.01918 -0.0026,-0.02482 -0.0043,-0.05085 -0.0043,-0.07644 0,-0.02482 0.0016,-0.04871 0.0038,-0.0726 5.03e-4,-0.0048 5.03e-4,-0.0097 7.15e-4,-0.01423 0,-2.12e-4 0,-2.12e-4 0,-2.12e-4 2.12e-4,-0.0028 9.26e-4,-0.0057 0.0014,-0.0087 0.0025,-0.0249 0.0061,-0.049 0.01109,-0.07289 0.0019,-0.01016 0.0049,-0.0199 0.0069,-0.02937 0.0045,-0.01699 0.008,-0.03355 0.01299,-0.0499 0.0033,-0.01109 0.0075,-0.02127 0.01109,-0.03244 0.0055,-0.01442 0.0099,-0.02929 0.01606,-0.04371 0.0047,-0.01117 0.01013,-0.02154 0.0149,-0.03223 0.0062,-0.01371 0.01252,-0.02715 0.01939,-0.03995 0.0054,-0.01088 0.01159,-0.02104 0.01767,-0.0317 0.0074,-0.01254 0.01492,-0.02511 0.02252,-0.03691 0.0068,-0.0104 0.01392,-0.02014 0.02103,-0.03008 0.0082,-0.01151 0.01675,-0.02318 0.02551,-0.03426 0.0078,-0.0097 0.01561,-0.01892 0.02363,-0.02794 0.0092,-0.01061 0.01889,-0.02127 0.02855,-0.03165 0.0085,-0.0088 0.01707,-0.01706 0.0258,-0.02582 0.01037,-0.0097 0.0208,-0.01942 0.03188,-0.02865 0.0092,-0.008 0.01818,-0.01585 0.0277,-0.02389 0.01156,-0.0083 0.02286,-0.01677 0.03474,-0.02532 0.0097,-0.0071 0.01958,-0.01392 0.02974,-0.02032 0.01209,-0.008 0.02479,-0.01585 0.03707,-0.02318 0.01066,-0.0057 0.02082,-0.01159 0.03146,-0.01749 0.01323,-0.0067 0.02672,-0.01302 0.04014,-0.01892 0.01095,-0.0053 0.0213,-0.01024 0.03217,-0.01471 0.01442,-0.0059 0.02884,-0.0109 0.04347,-0.01588 0.01087,-0.0038 0.02151,-0.0078 0.0326,-0.01138 0.01561,-0.0045 0.03167,-0.0083 0.04752,-0.01201 0.01064,-0.0026 0.0208,-0.0055 0.03146,-0.0076 0.01818,-0.0038 0.03635,-0.0059 0.05482,-0.0088 0.0089,-9.26e-4 0.01797,-0.0028 0.02741,-0.0035 0.02762,-0.0031 0.05575,-0.0042 0.08408,-0.0042 0.02699,0 0.053,0.0011 0.07919,0.0038 0.02508,0.0023 0.04937,0.0061 0.07353,0.01037 9e-4,2.11e-4 0.0014,2.11e-4 0.0023,2.11e-4 v 2.91e-4 c 0.01109,0.0019 0.02151,0.0047 0.03238,0.0073 l 0.179123,-0.636164 0.03876,-0.137027 -0.0286,-0.02154 -1.264762,-0.972555 c -0.526256,0.180446 -0.984911,0.516917 -1.315296,0.964512 0.0468,-0.0026 0.09361,-9.26e-4 0.140123,0.0052 0.406665,0.05397 0.693103,0.42754 0.63926,0.834972 l -0.09268,0.704268 -0.0021,0.01423 -0.06051,0.459554 -0.0045,0.03384 -0.216879,1.646184 c 0.418941,0.366316 0.939535,0.595842 1.492064,0.658416 -0.02577,-0.03897 -0.0477,-0.08049 -0.0657,-0.124011 -0.157162,-0.379968 0.02358,-0.814546 0.402405,-0.972132 l 2.660888,-1.101804 c 0.106813,-0.546576 0.04559,-1.113208 -0.176503,-1.623298 z"
       inkscape:connector-curvature="0"
       style="fill:#b3b3b3;stroke-width:0.26458332" />
  </g>
</svg>
